<svg width="79" height="80" viewBox="0 0 79 80" fill="none" xmlns="http://www.w3.org/2000/svg">
<path d="M39 21.5C49.2173 21.5 57.5 29.7827 57.5 40C57.5 50.2173 49.2173 58.5 39 58.5C28.7827 58.5 20.5 50.2173 20.5 40C20.5 29.7827 28.7827 21.5 39 21.5Z" stroke="black" stroke-width="5"/>
<path d="M37 3C37 1.34315 38.3431 0 40 0C41.6569 0 43 1.34315 43 3V12C43 13.6569 41.6569 15 40 15C38.3431 15 37 13.6569 37 12V3Z" fill="black"/>
<path d="M37 68C37 66.3431 38.3431 65 40 65C41.6569 65 43 66.3431 43 68V77C43 78.6569 41.6569 80 40 80C38.3431 80 37 78.6569 37 77V68Z" fill="black"/>
<path d="M23.4102 62.4672C24.2386 61.0323 26.0734 60.5407 27.5082 61.3691C28.9431 62.1976 29.4347 64.0323 28.6063 65.4672L24.1063 73.2614C23.2779 74.6963 21.4431 75.1879 20.0082 74.3595C18.5734 73.5311 18.0817 71.6963 18.9102 70.2614L23.4102 62.4672Z" fill="black"/>
<path d="M51.5 65.5981C50.6716 64.1632 51.1632 62.3284 52.5981 61.5C54.033 60.6716 55.8677 61.1632 56.6962 62.5981L61.1962 70.3923C62.0246 71.8272 61.533 73.662 60.0981 74.4904C58.6632 75.3188 56.8284 74.8272 56 73.3923L51.5 65.5981Z" fill="black"/>
<path d="M19.5 9.59808C18.6716 8.1632 19.1632 6.32843 20.5981 5.5C22.033 4.67157 23.8677 5.1632 24.6962 6.59808L29.1962 14.3923C30.0246 15.8272 29.533 17.662 28.0981 18.4904C26.6632 19.3188 24.8284 18.8272 24 17.3923L19.5 9.59808Z" fill="black"/>
<path d="M62.5981 56.696C61.1632 55.8676 60.6716 54.0328 61.5 52.598C62.3284 51.1631 64.1632 50.6715 65.5981 51.4999L73.3923 55.9999C74.8272 56.8283 75.3188 58.6631 74.4904 60.098C73.662 61.5328 71.8272 62.0245 70.3923 61.196L62.5981 56.696Z" fill="black"/>
<path d="M6.59808 24.696C5.1632 23.8676 4.67157 22.0328 5.5 20.598C6.32843 19.1631 8.1632 18.6715 9.59808 19.4999L17.3923 23.9999C18.8272 24.8283 19.3188 26.6631 18.4904 28.098C17.662 29.5328 15.8272 30.0245 14.3923 29.196L6.59808 24.696Z" fill="black"/>
<path d="M14.3922 51.5C15.827 50.6716 17.6618 51.1632 18.4902 52.5981C19.3187 54.033 18.827 55.8677 17.3922 56.6962L9.59793 61.1962C8.16305 62.0246 6.32828 61.533 5.49985 60.0981C4.67143 58.6632 5.16305 56.8284 6.59793 56L14.3922 51.5Z" fill="black"/>
<path d="M70.3922 19.5C71.827 18.6716 73.6618 19.1632 74.4902 20.5981C75.3187 22.033 74.827 23.8677 73.3922 24.6962L65.5979 29.1962C64.1631 30.0246 62.3283 29.533 61.4999 28.0981C60.6714 26.6632 61.1631 24.8284 62.5979 24L70.3922 19.5Z" fill="black"/>
<path d="M56 6.59808C56.8284 5.1632 58.6632 4.67157 60.0981 5.5C61.533 6.32843 62.0246 8.1632 61.1962 9.59808L56.6962 17.3923C55.8677 18.8272 54.033 19.3188 52.5981 18.4904C51.1632 17.662 50.6716 15.8272 51.5 14.3923L56 6.59808Z" fill="black"/>
<path d="M67 43C65.3431 43 64 41.6569 64 40C64 38.3431 65.3431 37 67 37H76C77.6569 37 79 38.3431 79 40C79 41.6569 77.6569 43 76 43H67Z" fill="black"/>
<path d="M3 43C1.34315 43 0 41.6569 0 40C0 38.3431 1.34315 37 3 37H12C13.6569 37 15 38.3431 15 40C15 41.6569 13.6569 43 12 43H3Z" fill="black"/>
</svg>
